{
  "accessors": [
    {
      "bufferView": 2,
      "componentType": 5126,
      "count": 65532,
      "max": [
        373.70828247070312,
        605.9127197265625,
        425.3360595703125
      ],
      "min": [
        -333.201416015625,
        -389.22555541992188,
        -390.4620361328125
      ],
      "type": "VEC3"
    },
    {
      "bufferView": 2,
      "byteOffset": 786384,
      "componentType": 5126,
      "count": 65532,
      "max": [
        0.99998921155929565,
        0.99999856948852539,
        0.99998742341995239
      ],
      "min": [
        -0.99991005659103394,
        -0.999805748462677,
        -0.99998688697814941
      ],
      "type": "VEC3"
    },
    {
      "bufferView": 1,
      "componentType": 5126,
      "count": 65532,
      "max": [
        0.99942481517791748,
        0.9995085597038269
      ],
      "min": [
        0.00047573182382620871,
        0.00069701671600341797
      ],
      "type": "VEC2"
    },
    {
      "bufferView": 0,
      "componentType": 5125,
      "count": 239973,
      "max": [
        65531
      ],
      "min": [
        0
      ],
      "type": "SCALAR"
    },
    {
      "bufferView": 2,
      "byteOffset": 1572768,
      "componentType": 5126,
      "count": 65533,
      "max": [
        373.70834350585938,
        605.9127197265625,
        425.33615112304688
      ],
      "min": [
        -333.20144653320312,
        -391.347412109375,
        -390.46206665039062
      ],
      "type": "VEC3"
    },
    {
      "bufferView": 2,
      "byteOffset": 2359164,
      "componentType": 5126,
      "count": 65533,
      "max": [
        0.99998217821121216,
        1,
        0.99993324279785156
      ],
      "min": [
        -0.99988853931427002,
        -0.9998621940612793,
        -0.99995863437652588
      ],
      "type": "VEC3"
    },
    {
      "bufferView": 1,
      "byteOffset": 524256,
      "componentType": 5126,
      "count": 65533,
      "max": [
        0.99952405691146851,
        0.99953049421310425
      ],
      "min": [
        0.00046384101733565331,
        0.00069755315780639648
      ],
      "type": "VEC2"
    },
    {
      "bufferView": 0,
      "byteOffset": 959892,
      "componentType": 5125,
      "count": 139053,
      "max": [
        65532
      ],
      "min": [
        0
      ],
      "type": "SCALAR"
    },
    {
      "bufferView": 2,
      "byteOffset": 3145560,
      "componentType": 5126,
      "count": 65534,
      "max": [
        373.70834350585938,
        596.7769775390625,
        425.33615112304688
      ],
      "min": [
        -333.20150756835938,
        -391.61727905273438,
        -390.46206665039062
      ],
      "type": "VEC3"
    },
    {
      "bufferView": 2,
      "byteOffset": 3931968,
      "componentType": 5126,
      "count": 65534,
      "max": [
        0.99993491172790527,
        1,
        0.99996799230575562
      ],
      "min": [
        -0.9999082088470459,
        -0.9998621940612793,
        -0.99993342161178589
      ],
      "type": "VEC3"
    },
    {
      "bufferView": 1,
      "byteOffset": 1048520,
      "componentType": 5126,
      "count": 65534,
      "max": [
        0.99950152635574341,
        0.99952375888824463
      ],
      "min": [
        0.00046439885045401752,
        0.00076496601104736328
      ],
      "type": "VEC2"
    },
    {
      "bufferView": 0,
      "byteOffset": 1516104,
      "componentType": 5125,
      "count": 89538,
      "max": [
        65533
      ],
      "min": [
        0
      ],
      "type": "SCALAR"
    },
    {
      "bufferView": 2,
      "byteOffset": 4718376,
      "componentType": 5126,
      "count": 51406,
      "max": [
        373.70831298828125,
        608.38275146484375,
        425.33612060546875
      ],
      "min": [
        -333.20150756835938,
        -391.4517822265625,
        -390.46206665039062
      ],
      "type": "VEC3"
    },
    {
      "bufferView": 2,
      "byteOffset": 5335248,
      "componentType": 5126,
      "count": 51406,
      "max": [
        0.99998217821121216,
        0.9999997615814209,
        0.99999326467514038
      ],
      "min": [
        -0.99996215105056763,
        -0.9998621940612793,
        -1
      ],
      "type": "VEC3"
    },
    {
      "bufferView": 1,
      "byteOffset": 1572792,
      "componentType": 5126,
      "count": 51406,
      "max": [
        0.99953275918960571,
        0.99952805042266846
      ],
      "min": [
        0.00046446715714409947,
        0.00077533721923828125
      ],
      "type": "VEC2"
    },
    {
      "bufferView": 0,
      "byteOffset": 1874256,
      "componentType": 5125,
      "count": 65277,
      "max": [
        51405
      ],
      "min": [
        0
      ],
      "type": "SCALAR"
    }
  ],
  "asset": {
    "extras": {
      "author": "zatamite (https://sketchfab.com/zatamite)",
      "license": "CC-BY-4.0 (http://creativecommons.org/licenses/by/4.0/)",
      "source": "https://sketchfab.com/3d-models/potted-house-plant-19e5ac2b7fc34ffda9ab62ee3722d3e2",
      "title": "Potted House Plant"
    },
    "generator": "Sketchfab-8.87.0",
    "version": "2.0"
  },
  "bufferViews": [
    {
      "buffer": 0,
      "byteLength": 2135364,
      "byteOffset": 0,
      "name": "floatBufferViews",
      "target": 34963
    },
    {
      "buffer": 0,
      "byteLength": 1984040,
      "byteOffset": 2135364,
      "byteStride": 8,
      "name": "floatBufferViews",
      "target": 34962
    },
    {
      "buffer": 0,
      "byteLength": 5952120,
      "byteOffset": 4119404,
      "byteStride": 12,
      "name": "floatBufferViews",
      "target": 34962
    }
  ],
  "buffers": [
    {
      "byteLength": 10071524,
      "uri": "scene.bin"
    }
  ],
  "extensionsUsed": [
    "KHR_materials_unlit"
  ],
  "images": [
    {
      "uri": "textures/Material0_baseColor.jpeg"
    }
  ],
  "materials": [
    {
      "doubleSided": true,
      "emissiveFactor": [
        0,
        0,
        0
      ],
      "extensions": {
        "KHR_materials_unlit": {}
      },
      "name": "Material0",
      "pbrMetallicRoughness": {
        "baseColorFactor": [
          1,
          1,
          1,
          1
        ],
        "baseColorTexture": {
          "index": 0,
          "texCoord": 0
        },
        "metallicFactor": 0,
        "roughnessFactor": 1
      }
    }
  ],
  "meshes": [
    {
      "name": "Stereo textured mesh_Material0_0",
      "primitives": [
        {
          "attributes": {
            "NORMAL": 1,
            "POSITION": 0,
            "TEXCOORD_0": 2
          },
          "indices": 3,
          "material": 0,
          "mode": 4
        }
      ]
    },
    {
      "name": "Stereo textured mesh_Material0_0",
      "primitives": [
        {
          "attributes": {
            "NORMAL": 5,
            "POSITION": 4,
            "TEXCOORD_0": 6
          },
          "indices": 7,
          "material": 0,
          "mode": 4
        }
      ]
    },
    {
      "name": "Stereo textured mesh_Material0_0",
      "primitives": [
        {
          "attributes": {
            "NORMAL": 9,
            "POSITION": 8,
            "TEXCOORD_0": 10
          },
          "indices": 11,
          "material": 0,
          "mode": 4
        }
      ]
    },
    {
      "name": "Stereo textured mesh_Material0_0",
      "primitives": [
        {
          "attributes": {
            "NORMAL": 13,
            "POSITION": 12,
            "TEXCOORD_0": 14
          },
          "indices": 15,
          "material": 0,
          "mode": 4
        }
      ]
    }
  ],
  "nodes": [
    {
      "children": [
        1
      ],
      "name": "RootNode (gltf orientation matrix)",
      "rotation": [
        -0.70710678118654746,
        -0,
        -0,
        0.70710678118654757
      ]
    },
    {
      "children": [
        2
      ],
      "matrix": [
        0.0039725792594254017,
        -0.99999213218688965,
        -4.4408920985006262e-16,
        0,
        2.2204460492503131e-16,
        5.5511151231257827e-16,
        -1,
        0,
        0.99999213218688965,
        0.0039725792594254017,
        3.3306690738754696e-16,
        0,
        37.609195709228516,
        -88.059768676757812,
        -125.81866455078125,
        1
      ],
      "name": "RootNode (model correction matrix)"
    },
    {
      "children": [
        3
      ],
      "matrix": [
        1,
        0,
        0,
        0,
        0,
        -1,
        0,
        0,
        0,
        0,
        -1,
        0,
        0,
        0,
        0,
        1
      ],
      "name": "sketchfabTemp.obj.fbx"
    },
    {
      "children": [
        4
      ],
      "name": "RootNode"
    },
    {
      "children": [
        5,
        6,
        7,
        8
      ],
      "name": "Stereo textured mesh"
    },
    {
      "mesh": 0,
      "name": "Stereo textured mesh_Material0_0"
    },
    {
      "mesh": 1,
      "name": "Stereo textured mesh_Material0_0"
    },
    {
      "mesh": 2,
      "name": "Stereo textured mesh_Material0_0"
    },
    {
      "mesh": 3,
      "name": "Stereo textured mesh_Material0_0"
    }
  ],
  "samplers": [
    {
      "magFilter": 9729,
      "minFilter": 9987,
      "wrapS": 10497,
      "wrapT": 10497
    }
  ],
  "scene": 0,
  "scenes": [
    {
      "name": "OSG_Scene",
      "nodes": [
        0
      ]
    }
  ],
  "textures": [
    {
      "sampler": 0,
      "source": 0
    }
  ]
}

