{
  "accessors": [
    {
      "bufferView": 2,
      "componentType": 5126,
      "count": 2734,
      "max": [
        0.69973725080490112,
        0.75696128606796265,
        0.28600841760635376
      ],
      "min": [
        -0.70026284456253052,
        -5.9604644775390625e-08,
        -0.31399160623550415
      ],
      "type": "VEC3"
    },
    {
      "bufferView": 2,
      "byteOffset": 32808,
      "componentType": 5126,
      "count": 2734,
      "max": [
        1,
        1,
        1
      ],
      "min": [
        -1,
        -1,
        -1
      ],
      "type": "VEC3"
    },
    {
      "bufferView": 3,
      "componentType": 5126,
      "count": 2734,
      "max": [
        1,
        1,
        1,
        1
      ],
      "min": [
        -1,
        -1,
        -1,
        -1
      ],
      "type": "VEC4"
    },
    {
      "bufferView": 1,
      "componentType": 5126,
      "count": 2734,
      "max": [
        0.99915176630020142,
        0.99994564056396484
      ],
      "min": [
        4.6550165279768407e-05,
        0.0022384114563465118
      ],
      "type": "VEC2"
    },
    {
      "bufferView": 0,
      "componentType": 5125,
      "count": 9924,
      "max": [
        2733
      ],
      "min": [
        0
      ],
      "type": "SCALAR"
    },
    {
      "bufferView": 2,
      "byteOffset": 65616,
      "componentType": 5126,
      "count": 1997,
      "max": [
        0.19749999046325684,
        0.078499987721443176,
        0.021031171083450317
      ],
      "min": [
        -0.19749996066093445,
        -0.07850000262260437,
        -0.41499996185302734
      ],
      "type": "VEC3"
    },
    {
      "bufferView": 2,
      "byteOffset": 89580,
      "componentType": 5126,
      "count": 1997,
      "max": [
        1,
        1,
        1
      ],
      "min": [
        -1,
        -1,
        -1
      ],
      "type": "VEC3"
    },
    {
      "bufferView": 3,
      "byteOffset": 43744,
      "componentType": 5126,
      "count": 1997,
      "max": [
        1,
        1,
        1,
        1
      ],
      "min": [
        -1,
        -1,
        -0.9994702935218811,
        -1
      ],
      "type": "VEC4"
    },
    {
      "bufferView": 1,
      "byteOffset": 21872,
      "componentType": 5126,
      "count": 1997,
      "max": [
        0.99847793579101562,
        0.97418707609176636
      ],
      "min": [
        0.32128942012786865,
        0.015641476958990097
      ],
      "type": "VEC2"
    },
    {
      "bufferView": 0,
      "byteOffset": 39696,
      "componentType": 5125,
      "count": 7788,
      "max": [
        1996
      ],
      "min": [
        0
      ],
      "type": "SCALAR"
    },
    {
      "bufferView": 2,
      "byteOffset": 113544,
      "componentType": 5126,
      "count": 841,
      "max": [
        0.00024753808975219727,
        0.23098704218864441,
        0.021278619766235352
      ],
      "min": [
        -0.39475241303443909,
        -0.23098695278167725,
        -0.017232358455657959
      ],
      "type": "VEC3"
    },
    {
      "bufferView": 2,
      "byteOffset": 123636,
      "componentType": 5126,
      "count": 841,
      "max": [
        1,
        0.99797153472900391,
        1
      ],
      "min": [
        -1,
        -0.99797153472900391,
        -1
      ],
      "type": "VEC3"
    },
    {
      "bufferView": 3,
      "byteOffset": 75696,
      "componentType": 5126,
      "count": 841,
      "max": [
        0.98498690128326416,
        1,
        0.99940693378448486,
        1
      ],
      "min": [
        -0.99987655878067017,
        -1,
        -0.99946928024291992,
        1
      ],
      "type": "VEC4"
    },
    {
      "bufferView": 1,
      "byteOffset": 37848,
      "componentType": 5126,
      "count": 841,
      "max": [
        0.9959719181060791,
        0.96551352739334106
      ],
      "min": [
        0.0052730748429894447,
        0.059766046702861786
      ],
      "type": "VEC2"
    },
    {
      "bufferView": 0,
      "byteOffset": 70848,
      "componentType": 5125,
      "count": 3588,
      "max": [
        840
      ],
      "min": [
        0
      ],
      "type": "SCALAR"
    }
  ],
  "asset": {
    "extras": {
      "author": "AleixoAlonso (https://sketchfab.com/AleixoAlonso)",
      "license": "CC-BY-4.0 (http://creativecommons.org/licenses/by/4.0/)",
      "source": "https://sketchfab.com/3d-models/office-desk-140x60-9262f311271c4c4390341e526d3fe103",
      "title": "Office Desk 140x60"
    },
    "generator": "Sketchfab-8.94.0",
    "version": "2.0"
  },
  "bufferViews": [
    {
      "buffer": 0,
      "byteLength": 85200,
      "byteOffset": 0,
      "name": "floatBufferViews",
      "target": 34963
    },
    {
      "buffer": 0,
      "byteLength": 44576,
      "byteOffset": 85200,
      "byteStride": 8,
      "name": "floatBufferViews",
      "target": 34962
    },
    {
      "buffer": 0,
      "byteLength": 133728,
      "byteOffset": 129776,
      "byteStride": 12,
      "name": "floatBufferViews",
      "target": 34962
    },
    {
      "buffer": 0,
      "byteLength": 89152,
      "byteOffset": 263504,
      "byteStride": 16,
      "name": "floatBufferViews",
      "target": 34962
    }
  ],
  "buffers": [
    {
      "byteLength": 352656,
      "uri": "scene.bin"
    }
  ],
  "images": [
    {
      "uri": "textures/TBL0003_Desk_baseColor.png"
    },
    {
      "uri": "textures/TBL0003_Desk_metallicRoughness.png"
    },
    {
      "uri": "textures/TBL0003_Desk_normal.png"
    }
  ],
  "materials": [
    {
      "doubleSided": true,
      "emissiveFactor": [
        0,
        0,
        0
      ],
      "name": "TBL0003_Desk",
      "normalTexture": {
        "index": 2,
        "scale": 1,
        "texCoord": 0
      },
      "pbrMetallicRoughness": {
        "baseColorFactor": [
          1,
          1,
          1,
          1
        ],
        "baseColorTexture": {
          "index": 0,
          "texCoord": 0
        },
        "metallicFactor": 0,
        "metallicRoughnessTexture": {
          "index": 1,
          "texCoord": 0
        },
        "roughnessFactor": 1
      }
    }
  ],
  "meshes": [
    {
      "primitives": [
        {
          "attributes": {
            "NORMAL": 1,
            "POSITION": 0,
            "TANGENT": 2,
            "TEXCOORD_0": 3
          },
          "indices": 4,
          "material": 0,
          "mode": 4
        }
      ]
    },
    {
      "primitives": [
        {
          "attributes": {
            "NORMAL": 6,
            "POSITION": 5,
            "TANGENT": 7,
            "TEXCOORD_0": 8
          },
          "indices": 9,
          "material": 0,
          "mode": 4
        }
      ]
    },
    {
      "primitives": [
        {
          "attributes": {
            "NORMAL": 11,
            "POSITION": 10,
            "TANGENT": 12,
            "TEXCOORD_0": 13
          },
          "indices": 14,
          "material": 0,
          "mode": 4
        }
      ]
    }
  ],
  "nodes": [
    {
      "children": [
        1
      ],
      "name": "RootNode (gltf orientation matrix)",
      "rotation": [
        -0.70710678118654746,
        -0,
        -0,
        0.70710678118654757
      ]
    },
    {
      "children": [
        2
      ],
      "name": "RootNode (model correction matrix)"
    },
    {
      "children": [
        3
      ],
      "name": "root"
    },
    {
      "children": [
        4,
        6,
        8
      ],
      "matrix": [
        1,
        0,
        0,
        0,
        0,
        2.2204460492503131e-16,
        1,
        0,
        0,
        -1,
        2.2204460492503131e-16,
        0,
        0,
        0,
        0,
        1
      ],
      "name": "GLTF_SceneRootNode"
    },
    {
      "children": [
        5
      ],
      "name": "#TBL0003_Desk_140x60_Gray_0"
    },
    {
      "mesh": 0,
      "name": ""
    },
    {
      "children": [
        7
      ],
      "matrix": [
        1,
        0,
        0,
        0,
        0,
        1,
        0,
        0,
        0,
        0,
        1,
        0,
        0.49959218502044678,
        0.54322946071624756,
        0.26483744382858276,
        1
      ],
      "name": "#TBL0003_Drawer_1"
    },
    {
      "mesh": 1,
      "name": ""
    },
    {
      "children": [
        9
      ],
      "matrix": [
        1,
        0,
        0,
        0,
        0,
        1,
        0,
        0,
        0,
        0,
        1,
        0,
        0.69684463739395142,
        0.23296177387237549,
        0.26458966732025146,
        1
      ],
      "name": "#TBL0003_Door_2"
    },
    {
      "mesh": 2,
      "name": ""
    }
  ],
  "samplers": [
    {
      "magFilter": 9729,
      "minFilter": 9987,
      "wrapS": 10497,
      "wrapT": 10497
    }
  ],
  "scene": 0,
  "scenes": [
    {
      "name": "OSG_Scene",
      "nodes": [
        0
      ]
    }
  ],
  "textures": [
    {
      "sampler": 0,
      "source": 0
    },
    {
      "sampler": 0,
      "source": 1
    },
    {
      "sampler": 0,
      "source": 2
    }
  ]
}

